<svg width="726" height="96" viewBox="0 0 726 96" fill="none" xmlns="http://www.w3.org/2000/svg">
<path d="M15.0859 69V57.7969H22.5781V59.5938H16.9141V62.5078H20.9766V64.2969H16.9141V67.2109H22.5781V69H15.0859ZM30.5625 69V64.8594L26.0859 60.375V69H24.2578V57.7969H26.0859L30.5625 62.2812V57.7969H32.3906V69H30.5625ZM36.5703 69V59.5938H33.4219V57.7969H41.5469V59.5938H38.3984V69H36.5703ZM42.5859 69V57.7969H50.0781V59.5938H44.4141V62.5078H48.4766V64.2969H44.4141V67.2109H50.0781V69H42.5859ZM58.0625 69V68.1016L54.2266 64.2656H53.5859V69H51.7578V57.7969H58.2734L59.8906 59.4141V62.6484L58.2734 64.2656H56.7969L59.8906 67.3516V69H58.0625ZM58.0625 60.1719L57.4844 59.5938H53.5859V62.4688H57.4844L58.0625 61.8984V60.1719ZM69.1953 69V64.1875H68.4609L66.0469 61.7656V57.7969H67.8672V61.0156L69.25 62.3906H70.9766L72.3516 61.0156V57.7969H74.1719V61.7656L71.7578 64.1875H71.0234V69H69.1953ZM77.3906 69L75.7734 67.3828V59.4141L77.3906 57.7969H82.2812L83.8984 59.4141V67.3828L82.2812 69H77.3906ZM82.0781 60.1719L81.5 59.5938H78.1719L77.5938 60.1719V66.6328L78.1719 67.2109H81.5L82.0781 66.6328V60.1719ZM87.5156 69L85.8984 67.3828V57.7969H87.7266V66.6328L88.2969 67.2109H91.625L92.2031 66.6328V57.7969H94.0312V67.3828L92.4141 69H87.5156ZM102.406 69V68.1016L98.5703 64.2656H97.9297V69H96.1016V57.7969H102.617L104.234 59.4141V62.6484L102.617 64.2656H101.141L104.234 67.3516V69H102.406ZM102.406 60.1719L101.828 59.5938H97.9297V62.4688H101.828L102.406 61.8984V60.1719ZM15.7578 91V87.8828H11.2734V91H9.45312V83.0312L12.6875 79.7969H14.3516L17.5781 83.0312V91H15.7578ZM15.7578 83.7812L13.5625 81.5938H13.4688L11.2734 83.7812V86.0859H15.7578V83.7812ZM21.1172 91L19.5 89.3828V81.4141L21.1172 79.7969H26.0078L27.625 81.4141V83.1797H25.8047V82.1719L25.2266 81.5938H21.8984L21.3203 82.1719V88.6328L21.8984 89.2109H25.2266L25.8047 88.6328V87.625H27.625V89.3828L26.0078 91H21.1172ZM30.9297 91L29.3125 89.3828V81.4141L30.9297 79.7969H35.8203L37.4375 81.4141V83.1797H35.6172V82.1719L35.0391 81.5938H31.7109L31.1328 82.1719V88.6328L31.7109 89.2109H35.0391L35.6172 88.6328V87.625H37.4375V89.3828L35.8203 91H30.9297ZM39.2031 91V79.7969H46.6953V81.5938H41.0312V84.5078H45.0938V86.2969H41.0312V89.2109H46.6953V91H39.2031ZM49.5938 91L47.9766 89.3828V87.625H49.7969V88.6328L50.375 89.2109H53.7031L54.2812 88.6328V86.875L53.7031 86.2969H49.5938L47.9766 84.6797V81.4141L49.5938 79.7969H54.4844L56.1016 81.4141V83.1797H54.2812V82.1719L53.7031 81.5938H50.375L49.7969 82.1719V83.9297L50.375 84.5078H54.4844L56.1016 86.1172V89.3828L54.4844 91H49.5938ZM59 91L57.3828 89.3828V87.625H59.2031V88.6328L59.7812 89.2109H63.1094L63.6875 88.6328V86.875L63.1094 86.2969H59L57.3828 84.6797V81.4141L59 79.7969H63.8906L65.5078 81.4141V83.1797H63.6875V82.1719L63.1094 81.5938H59.7812L59.2031 82.1719V83.9297L59.7812 84.5078H63.8906L65.5078 86.1172V89.3828L63.8906 91H59ZM73.5234 91L71.9062 89.3828V81.4141L73.5234 79.7969H78.4141L80.0312 81.4141V83.1797H78.2109V82.1719L77.6328 81.5938H74.3047L73.7266 82.1719V88.6328L74.3047 89.2109H77.6328L78.2109 88.6328V87.625H80.0312V89.3828L78.4141 91H73.5234ZM83.3359 91L81.7188 89.3828V81.4141L83.3359 79.7969H88.2266L89.8438 81.4141V89.3828L88.2266 91H83.3359ZM88.0234 82.1719L87.4453 81.5938H84.1172L83.5391 82.1719V88.6328L84.1172 89.2109H87.4453L88.0234 88.6328V82.1719ZM91.2812 91V89.2109H92.8828V81.5938H91.2812V79.7969H98.7578L100.375 81.4141V89.3828L98.7578 91H91.2812ZM98.5469 82.1719L97.9766 81.5938H94.7109V89.2109H97.9766L98.5469 88.6328V82.1719ZM102.375 91V79.7969H109.867V81.5938H104.203V84.5078H108.266V86.2969H104.203V89.2109H109.867V91H102.375Z" fill="white"/>
<path d="M48.9999 20H50.6666V21.6667H60.6666V20H62.3333V18.3333H63.9999V8.33333H62.3333V6.66667H60.6666V5H50.6666V6.66667H48.9999V8.33333H47.3333V18.3333H48.9999V20ZM50.6666 11.6667H52.3333V10H53.9999V8.33333H57.3333V10H58.9999V11.6667H60.6666V15H58.9999V16.6667H57.3333V18.3333H53.9999V16.6667H52.3333V15H50.6666V11.6667Z" fill="white"/>
<path d="M67.3333 25H65.6666V23.3333H45.6666V25H43.9999V26.6666H42.3333V35H45.6666V30H47.3333V28.3333H48.9999V26.6666H62.3333V28.3333H63.9999V30H65.6666V31.6666V33.3333V35H68.9999V26.6666H67.3333V25Z" fill="white"/>
<path d="M72.3332 11.6666V9.99998V8.33331H68.9998V11.6666H65.6665V15H68.9998V18.3333H72.3332V15H75.6665V11.6666H72.3332Z" fill="white"/>
<path d="M241.891 69L240.273 67.3828V59.4141L241.891 57.7969H246.781L248.398 59.4141V61.1797H246.578V60.1719L246 59.5938H242.672L242.094 60.1719V66.6328L242.672 67.2109H246L246.578 66.6328V65.625H248.398V67.3828L246.781 69H241.891ZM251.703 69L250.086 67.3828V59.4141L251.703 57.7969H256.594L258.211 59.4141V67.3828L256.594 69H251.703ZM256.391 60.1719L255.812 59.5938H252.484L251.906 60.1719V66.6328L252.484 67.2109H255.812L256.391 66.6328V60.1719ZM266.516 69V64.8594L262.039 60.375V69H260.211V57.7969H262.039L266.516 62.2812V57.7969H268.344V69H266.516ZM276.719 69V64.8594L272.242 60.375V69H270.414V57.7969H272.242L276.719 62.2812V57.7969H278.547V69H276.719ZM280.617 69V57.7969H288.109V59.5938H282.445V62.5078H286.508V64.2969H282.445V67.2109H288.109V69H280.617ZM291.328 69L289.711 67.3828V59.4141L291.328 57.7969H296.219L297.836 59.4141V61.1797H296.016V60.1719L295.438 59.5938H292.109L291.531 60.1719V66.6328L292.109 67.2109H295.438L296.016 66.6328V65.625H297.836V67.3828L296.219 69H291.328ZM301.711 69V59.5938H298.562V57.7969H306.688V59.5938H303.539V69H301.711ZM252.25 91L251.438 90.1875L250.617 91H248.188L246.57 89.3828V79.7969H248.398V88.6328L248.969 89.2109H249.945L250.523 88.6328V83H252.344V88.6328L252.922 89.2109H253.898L254.477 88.6328V79.7969H256.297V89.3828L254.68 91H252.25ZM264.609 91V87.8828H260.125V91H258.305V83.0312L261.539 79.7969H263.203L266.43 83.0312V91H264.609ZM264.609 83.7812L262.414 81.5938H262.32L260.125 83.7812V86.0859H264.609V83.7812ZM268.43 91V79.7969H270.258V89.2109H275.281V91H268.43ZM276.32 91V79.7969H278.148V89.2109H283.172V91H276.32ZM284.211 91V79.7969H291.703V81.5938H286.039V84.5078H290.102V86.2969H286.039V89.2109H291.703V91H284.211ZM295.492 91V81.5938H292.344V79.7969H300.469V81.5938H297.32V91H295.492Z" fill="white"/>
<path fill-rule="evenodd" clip-rule="evenodd" d="M256.333 6.66669H259.667H259.667H286.333V10H259.667V13.3334H286.333V20H259.667L259.667 30H276.333V33.3334L259.667 33.3334H256.333V6.66669ZM289.667 6.66669H286.333V20H289.667V6.66669ZM283 23.3334H286.333V26.6667H289.667V30H286.333V33.3334H283V30H279.667V26.6667H283V23.3334Z" fill="white"/>
<path d="M430.094 65.2734V69H428.266V57.7969H434.781L436.398 59.4141V63.6562L434.781 65.2734H430.094ZM434.57 60.1719L433.992 59.5938H430.094V63.4766H433.992L434.57 62.9062V60.1719ZM439.695 69L438.078 67.3828V57.7969H439.906V66.6328L440.477 67.2109H443.805L444.383 66.6328V57.7969H446.211V67.3828L444.594 69H439.695ZM454.586 69V68.1016L450.75 64.2656H450.109V69H448.281V57.7969H454.797L456.414 59.4141V62.6484L454.797 64.2656H453.32L456.414 67.3516V69H454.586ZM454.586 60.1719L454.008 59.5938H450.109V62.4688H454.008L454.586 61.8984V60.1719ZM459.711 69L458.094 67.3828V59.4141L459.711 57.7969H464.602L466.219 59.4141V61.1797H464.398V60.1719L463.82 59.5938H460.492L459.914 60.1719V66.6328L460.492 67.2109H463.82L464.398 66.6328V65.625H466.219V67.3828L464.602 69H459.711ZM474.289 69V64.2969H469.812V69H467.984V57.7969H469.812V62.5078H474.289V57.7969H476.117V69H474.289ZM484.414 69V65.8828H479.93V69H478.109V61.0312L481.344 57.7969H483.008L486.234 61.0312V69H484.414ZM484.414 61.7812L482.219 59.5938H482.125L479.93 61.7812V64.0859H484.414V61.7812ZM489.453 69L487.836 67.3828V65.625H489.656V66.6328L490.234 67.2109H493.562L494.141 66.6328V64.875L493.562 64.2969H489.453L487.836 62.6797V59.4141L489.453 57.7969H494.344L495.961 59.4141V61.1797H494.141V60.1719L493.562 59.5938H490.234L489.656 60.1719V61.9297L490.234 62.5078H494.344L495.961 64.1172V67.3828L494.344 69H489.453ZM497.641 69V57.7969H505.133V59.5938H499.469V62.5078H503.531V64.2969H499.469V67.2109H505.133V69H497.641ZM453.602 91V86.8594L449.125 82.375V91H447.297V79.7969H449.125L453.602 84.2812V79.7969H455.43V91H453.602ZM457.5 91V79.7969H464.828V81.5938H459.328V84.5078H463.227V86.2969H459.328V91H457.5ZM468.453 91V81.5938H465.305V79.7969H473.43V81.5938H470.281V91H468.453ZM474.469 83V79.7969H476.297V83H474.469ZM479.594 91L477.977 89.3828V87.625H479.797V88.6328L480.375 89.2109H483.703L484.281 88.6328V86.875L483.703 86.2969H479.594L477.977 84.6797V81.4141L479.594 79.7969H484.484L486.102 81.4141V83.1797H484.281V82.1719L483.703 81.5938H480.375L479.797 82.1719V83.9297L480.375 84.5078H484.484L486.102 86.1172V89.3828L484.484 91H479.594Z" fill="white"/>
<path d="M628.578 69L626.961 67.3828V59.4141L628.578 57.7969H633.469L635.086 59.4141V61.1797H633.266V60.1719L632.688 59.5938H629.359L628.781 60.1719V66.6328L629.359 67.2109H632.688L633.266 66.6328V65.625H635.086V67.3828L633.469 69H628.578ZM643.156 69V68.1016L639.32 64.2656H638.68V69H636.852V57.7969H643.367L644.984 59.4141V62.6484L643.367 64.2656H641.891L644.984 67.3516V69H643.156ZM643.156 60.1719L642.578 59.5938H638.68V62.4688H642.578L643.156 61.8984V60.1719ZM646.742 69V57.7969H654.234V59.5938H648.57V62.5078H652.633V64.2969H648.57V67.2109H654.234V69H646.742ZM662.141 69V65.8828H657.656V69H655.836V61.0312L659.07 57.7969H660.734L663.961 61.0312V69H662.141ZM662.141 61.7812L659.945 59.5938H659.852L657.656 61.7812V64.0859H662.141V61.7812ZM667.508 69V59.5938H664.359V57.7969H672.484V59.5938H669.336V69H667.508ZM673.523 69V57.7969H681.016V59.5938H675.352V62.5078H679.414V64.2969H675.352V67.2109H681.016V69H673.523ZM690.242 69V64.1875H689.508L687.094 61.7656V57.7969H688.914V61.0156L690.297 62.3906H692.023L693.398 61.0156V57.7969H695.219V61.7656L692.805 64.1875H692.07V69H690.242ZM698.438 69L696.82 67.3828V59.4141L698.438 57.7969H703.328L704.945 59.4141V67.3828L703.328 69H698.438ZM703.125 60.1719L702.547 59.5938H699.219L698.641 60.1719V66.6328L699.219 67.2109H702.547L703.125 66.6328V60.1719ZM708.562 69L706.945 67.3828V57.7969H708.773V66.6328L709.344 67.2109H712.672L713.25 66.6328V57.7969H715.078V67.3828L713.461 69H708.562ZM723.453 69V68.1016L719.617 64.2656H718.977V69H717.148V57.7969H723.664L725.281 59.4141V62.6484L723.664 64.2656H722.188L725.281 67.3516V69H723.453ZM723.453 60.1719L722.875 59.5938H718.977V62.4688H722.875L723.453 61.8984V60.1719ZM657.633 91L656.82 90.1875L656 91H653.57L651.953 89.3828V79.7969H653.781V88.6328L654.352 89.2109H655.328L655.906 88.6328V83H657.727V88.6328L658.305 89.2109H659.281L659.859 88.6328V79.7969H661.68V89.3828L660.062 91H657.633ZM665.305 91L663.688 89.3828V81.4141L665.305 79.7969H670.195L671.812 81.4141V89.3828L670.195 91H665.305ZM669.992 82.1719L669.414 81.5938H666.086L665.508 82.1719V88.6328L666.086 89.2109H669.414L669.992 88.6328V82.1719ZM680.117 91V90.1016L676.281 86.2656H675.641V91H673.812V79.7969H680.328L681.945 81.4141V84.6484L680.328 86.2656H678.852L681.945 89.3516V91H680.117ZM680.117 82.1719L679.539 81.5938H675.641V84.4688H679.539L680.117 83.8984V82.1719ZM683.703 91V79.7969H685.531V89.2109H690.555V91H683.703ZM691.031 91V89.2109H692.633V81.5938H691.031V79.7969H698.508L700.125 81.4141V89.3828L698.508 91H691.031ZM698.297 82.1719L697.727 81.5938H694.461V89.2109H697.727L698.297 88.6328V82.1719Z" fill="white"/>
<path fill-rule="evenodd" clip-rule="evenodd" d="M159 45.0037L159 50.0037L189 50.0037L189 55.0037L194 55.0037L194 50.0037L199 50.0037L199 45.0037L194 45.0037L194 40.0037L189 40.0037L189 45.0037L159 45.0037ZM184 35.0037L189 35.0037L189 40.0037L184 40.0037L184 35.0037ZM184 35.0037L179 35.0037L179 30.0037L184 30.0037L184 35.0037ZM184 60.0037L189 60.0037L189 55.0037L184 55.0037L184 60.0037ZM184 60.0037L179 60.0037L179 65.0037L184 65.0037L184 60.0037Z" fill="white"/>
<path fill-rule="evenodd" clip-rule="evenodd" d="M347 45.0037L347 50.0037L377 50.0037L377 55.0037L382 55.0037L382 50.0037L387 50.0037L387 45.0037L382 45.0037L382 40.0037L377 40.0037L377 45.0037L347 45.0037ZM372 35.0037L377 35.0037L377 40.0037L372 40.0037L372 35.0037ZM372 35.0037L367 35.0037L367 30.0037L372 30.0037L372 35.0037ZM372 60.0037L377 60.0037L377 55.0037L372 55.0037L372 60.0037ZM372 60.0037L367 60.0037L367 65.0037L372 65.0037L372 60.0037Z" fill="white"/>
<path fill-rule="evenodd" clip-rule="evenodd" d="M546 45.0037L546 50.0037L576 50.0037L576 55.0037L581 55.0037L581 50.0037L586 50.0037L586 45.0037L581 45.0037L581 40.0037L576 40.0037L576 45.0037L546 45.0037ZM571 35.0037L576 35.0037L576 40.0037L571 40.0037L571 35.0037ZM571 35.0037L566 35.0037L566 30.0037L571 30.0037L571 35.0037ZM571 60.0037L576 60.0037L576 55.0037L571 55.0037L571 60.0037ZM571 60.0037L566 60.0037L566 65.0037L571 65.0037L571 60.0037Z" fill="white"/>
<path fill-rule="evenodd" clip-rule="evenodd" d="M467.667 1.66669H464.333V5.00002H461V8.33335L457.667 8.33335V11.6667H452.667H449.333V15V35V38.3334H452.667H479.333H482.667V35V15V11.6667H479.333H474.333V8.33335L471 8.33335V5.00002H467.667V1.66669ZM471 11.6667H461V8.33335H464.333L464.333 5.00002H467.667L467.667 8.33335H471V11.6667ZM452.667 15H479.333V35H452.667V15ZM466 21.6667V25H462.667V28.3334H459.333V31.6667H462.667L462.667 28.3334H466L466 25H469.333V28.3334H472.667L472.667 31.6667H476V28.3334H472.667V25H469.333V21.6667H466ZM456 21.6667V18.3334H459.333V21.6667H456Z" fill="white"/>
<path fill-rule="evenodd" clip-rule="evenodd" d="M659.333 3.33331H662.667H679.333H682.667L682.667 9.99998H689.333H692.667V36.6666H689.333H682.667H679.333H662.667H659.333V3.33331ZM689.333 13.3333H682.667V16.6666H686V20H682.667V23.3333H686V26.6666H682.667V30H686V33.3333H689.333V13.3333ZM679.333 33.3333V6.66665H662.667V33.3333H666V30H676V33.3333H679.333ZM666 9.99998H669.333V13.3333H666V9.99998ZM676 9.99998H672.667V13.3333H676V9.99998ZM666 16.6666H669.333V20H666V16.6666ZM676 16.6666H672.667V20H676V16.6666ZM666 23.3333H669.333V26.6666H666V23.3333ZM676 23.3333H672.667V26.6666H676V23.3333Z" fill="white"/>
</svg>
