<svg width="88" height="28" viewBox="0 0 88 28" fill="none" xmlns="http://www.w3.org/2000/svg">
<path d="M13.4884 14.6557C13.4884 12.4401 13.4884 10.2245 13.4884 8.00895C13.4884 7.73765 13.5546 7.67548 13.814 7.68113C15.5911 7.68113 17.3682 7.68113 19.1453 7.68113C20.2099 7.6788 21.2705 7.81362 22.3022 8.08242C24.2559 8.64762 25.2217 9.84584 25.321 11.9145C25.3599 12.5534 25.2984 13.1946 25.1389 13.8135C24.9775 14.409 24.6678 14.9512 24.2402 15.3872C23.8126 15.8232 23.2817 16.1379 22.6995 16.3004C22.247 16.4643 22.247 16.4643 22.5119 16.8656L25.3597 21.3307C25.4093 21.4098 25.5197 21.4946 25.4811 21.585C25.4425 21.6755 25.3045 21.6303 25.2162 21.6303H21.7227C21.6419 21.6373 21.5609 21.6203 21.4894 21.5811C21.4179 21.542 21.359 21.4825 21.3198 21.4098C20.4202 19.9742 19.504 18.5443 18.6045 17.1087C18.5613 17.0095 18.488 16.9273 18.3955 16.8744C18.303 16.8214 18.1963 16.8005 18.0912 16.8148C17.8561 16.8346 17.6198 16.8346 17.3848 16.8148C17.1806 16.8148 17.1199 16.8713 17.1254 17.0861C17.1254 18.4708 17.1254 19.8612 17.1254 21.2459C17.1254 21.6246 17.1254 21.6246 16.7446 21.6246C15.7787 21.6246 14.8129 21.6246 13.8416 21.6246C13.5325 21.6246 13.4828 21.5285 13.4828 21.2403C13.4939 19.0699 13.4884 16.8656 13.4884 14.6557Z" fill="white"/>
<path d="M46.9112 21.8845C42.1428 21.8845 38.9032 18.2559 39.284 14.0056C39.4387 12.303 40.18 10.7124 41.3753 9.51841C42.5705 8.32441 44.1416 7.60498 45.8074 7.48885C46.9318 7.38673 48.0635 7.56824 49.1035 8.01753C50.1435 8.46682 51.0602 9.1702 51.7734 10.0662C51.9114 10.2301 51.928 10.3149 51.7403 10.4618C51.0045 11.0195 50.2778 11.5847 49.5603 12.1574C49.3837 12.2987 49.3009 12.2987 49.1464 12.1235C48.6445 11.5433 47.9826 11.1327 47.2481 10.9457C46.5136 10.7588 45.7409 10.8044 45.0322 11.0765C44.3235 11.3485 43.712 11.8343 43.2785 12.4696C42.845 13.105 42.6097 13.86 42.6039 14.6351C42.5981 15.4102 42.8219 16.1689 43.2458 16.811C43.6697 17.4531 44.2738 17.9485 44.9783 18.2317C45.6828 18.515 46.4547 18.5728 47.1919 18.3975C47.9292 18.2222 48.5972 17.822 49.1078 17.2499C49.2789 17.0577 49.3782 17.0238 49.5879 17.1933C50.2888 17.7585 51.0063 18.3237 51.7293 18.8889C51.939 19.0472 51.9004 19.1376 51.7624 19.3072C51.173 20.0584 50.4372 20.6755 49.602 21.1193C48.7667 21.563 47.8503 21.8236 46.9112 21.8845V21.8845Z" fill="white"/>
<path d="M39.6538 21.6528H26.8277C26.4524 21.6528 26.4524 21.6528 26.607 21.3137L32.8324 7.69803L33.0531 7.22327C35.2607 12.0557 37.4462 16.8317 39.6538 21.6528Z" fill="white"/>
<path d="M68.3966 7.22876L74.9918 21.6527H62.1381C61.7904 21.6527 61.7904 21.6527 61.9394 21.3305L68.2366 7.55658L68.3966 7.22876Z" fill="white"/>
<path d="M2.20759 14.6613C2.20759 12.44 2.20759 10.2131 2.20759 7.98626C2.20759 7.76018 2.25175 7.6754 2.49458 7.68105H11.6892C11.8989 7.68105 11.9817 7.72061 11.9762 7.958C11.9762 8.77754 11.9762 9.59708 11.9762 10.411C11.9762 10.6597 11.9155 10.7331 11.6726 10.7331C9.83481 10.7331 7.99699 10.7331 6.15366 10.7331C5.89427 10.7331 5.80044 10.7896 5.80596 11.0779C5.80596 11.9031 5.80596 12.7339 5.80596 13.5591C5.80596 13.7852 5.86667 13.853 6.08743 13.8474C7.48925 13.8474 8.89659 13.8474 10.3039 13.8474C10.5302 13.8474 10.6075 13.9039 10.6019 14.1469C10.6019 14.9571 10.6019 15.7653 10.6019 16.5716C10.6019 16.8316 10.5136 16.8769 10.2818 16.8769C8.88555 16.8769 7.48925 16.8769 6.09295 16.8769C5.86115 16.8769 5.80044 16.9447 5.80596 17.1764C5.80596 18.5781 5.80596 20.0024 5.80596 21.3702C5.80596 21.6076 5.76181 21.698 5.50794 21.698C4.49245 21.698 3.47696 21.698 2.46147 21.698C2.21311 21.698 2.1524 21.6245 2.1524 21.3815C2.20759 19.115 2.20759 16.8882 2.20759 14.6613Z" fill="white"/>
<path d="M59.4007 16.21C59.4007 17.9056 59.4007 19.6464 59.4007 21.3646C59.4007 21.602 59.3289 21.6641 59.1027 21.6585C58.0982 21.6585 57.0938 21.6585 56.0893 21.6585C55.8244 21.6585 55.7471 21.5963 55.7471 21.3194C55.7471 17.9282 55.7471 14.4861 55.7471 11.0723C55.7471 10.7784 55.6699 10.7106 55.3884 10.7162C54.4226 10.7162 53.4568 10.7162 52.4909 10.7162C52.2702 10.7162 52.2095 10.6541 52.215 10.4336C52.215 9.60278 52.215 8.77194 52.215 7.94675C52.215 7.70936 52.2923 7.6698 52.4965 7.6698H62.6348C62.8666 7.6698 62.9328 7.73762 62.9328 7.96936C62.9328 8.7889 62.9328 9.60844 62.9328 10.428C62.9328 10.6484 62.8776 10.7219 62.6514 10.7162C61.6745 10.7162 60.6977 10.7162 59.7208 10.7162C59.4614 10.7162 59.3786 10.7727 59.3786 11.061C59.4062 12.7792 59.4007 14.4918 59.4007 16.21Z" fill="white"/>
<path d="M76.504 14.6952C76.504 12.4683 76.504 10.2414 76.504 8.0145C76.504 7.75451 76.5647 7.68103 76.8241 7.68103C77.8285 7.68103 78.8385 7.68103 79.843 7.68103C80.1134 7.68103 80.1576 7.77146 80.1576 8.02015C80.1576 11.434 80.1576 14.8478 80.1576 18.2616C80.1576 18.6403 80.1575 18.6403 80.5384 18.6403C82.194 18.6403 83.8773 18.6403 85.5496 18.6403C85.7703 18.6403 85.8531 18.6855 85.8476 18.9342C85.8476 19.7537 85.8476 20.5732 85.8476 21.3871C85.8476 21.6189 85.7814 21.6697 85.5661 21.6697H76.7965C76.5426 21.6697 76.4985 21.5849 76.4985 21.3476C76.5095 19.1207 76.504 16.9051 76.504 14.6952Z" fill="white"/>
<path d="M17.1088 12.2818C17.1088 11.8297 17.1088 11.3832 17.1088 10.9367C17.1088 10.8123 17.1088 10.7219 17.2744 10.7219C18.2693 10.6823 19.2657 10.722 20.2546 10.8406C20.4421 10.8721 20.6267 10.9193 20.8065 10.9819C21.0768 11.0597 21.3122 11.2314 21.4724 11.4676C21.6325 11.7037 21.7073 11.9896 21.6841 12.2762C21.7041 12.5638 21.6258 12.8497 21.4627 13.0847C21.2996 13.3198 21.0618 13.4895 20.79 13.5648C20.0948 13.7609 19.3748 13.8486 18.6541 13.8248C18.2457 13.8248 17.8318 13.8248 17.4234 13.8248C17.2026 13.8248 17.1088 13.7796 17.1199 13.5309C17.1419 13.1183 17.1088 12.7001 17.1088 12.2818Z" fill="#21181B"/>
<path d="M33.0531 14.9382L33.754 16.4586C34.0797 17.1821 34.4053 17.9055 34.7695 18.6516C34.8689 18.8607 34.8302 18.9003 34.615 18.9003C33.594 18.9003 32.5675 18.9003 31.5465 18.9003C31.4085 18.9003 31.276 18.9003 31.3754 18.6968C31.9107 17.4477 32.4626 16.2269 33.0531 14.9382Z" fill="#21181B"/>
<path d="M68.4353 14.9835C68.6229 15.3792 68.7995 15.7635 68.9872 16.1535C69.357 16.9674 69.7267 17.7813 70.091 18.5895C70.1848 18.793 70.2069 18.8777 69.9309 18.8721C68.9154 18.8721 67.8999 18.8721 66.8845 18.8721C66.7741 18.8721 66.5864 18.9286 66.6968 18.6856L68.3525 15.057L68.4353 14.9835Z" fill="#21181B"/>
</svg>
