<svg width="100" height="22" viewBox="0 0 100 22" fill="none" xmlns="http://www.w3.org/2000/svg">
<path d="M69.7384 3.83428C70.8752 4.015 72.0324 4.015 73.1692 3.83428C74.3538 3.65426 75.5637 3.78156 76.6875 4.20447C77.8113 4.62737 78.8128 5.33228 79.5999 6.25428C80.6909 7.48092 81.3464 9.04671 81.4608 10.6998C81.5752 12.353 81.1419 13.9974 80.2307 15.3686C79.4713 16.5669 78.3788 17.5063 77.0932 18.0663C75.8077 18.6262 74.3877 18.7813 73.0153 18.5114C71.9737 18.3797 70.977 17.9996 70.1058 17.4017C69.2345 16.8039 68.5132 16.0052 67.9999 15.07C67.3124 13.9044 66.9389 12.5739 66.9173 11.2133C66.8957 9.85278 67.2267 8.51057 67.8769 7.32285C68.2925 6.5822 68.6131 5.78998 68.8307 4.96571C68.9538 4.58857 68.8307 4.18 68.9846 3.78714C69.1384 3.39428 69.4923 3.72428 69.7384 3.83428Z" fill="white"/>
<path d="M36.0615 18.5271C35.0917 18.557 34.1261 18.386 33.2228 18.0244C32.3195 17.6628 31.4973 17.118 30.8057 16.423C30.1141 15.728 29.5675 14.8972 29.1989 13.9805C28.8302 13.0639 28.6471 12.0805 28.6606 11.0896C28.6741 10.0987 28.884 9.12091 29.2775 8.21512C29.671 7.30933 30.2401 6.49434 30.9504 5.81929C31.6606 5.14424 32.4974 4.62312 33.4102 4.28735C34.323 3.95159 35.2929 3.80813 36.2615 3.86564C38.109 3.97534 39.8437 4.80897 41.1044 6.19282C42.365 7.57667 43.0542 9.40401 43.0284 11.2941C43.0027 13.1842 42.2639 14.9912 40.966 16.3386C39.6681 17.6861 37.9112 18.47 36.0615 18.5271V18.5271Z" fill="white"/>
<path d="M61.5384 16.28C59.6888 17.8518 57.3038 18.6092 54.9077 18.3857C53.909 18.3586 52.9278 18.1121 52.0308 17.6629C51.0107 17.1322 50.1417 16.3421 49.5077 15.3686C48.916 14.473 48.5275 13.4539 48.3705 12.3855C48.2135 11.3171 48.2919 10.2264 48.6 9.19286C48.9557 7.83822 49.7046 6.62531 50.7481 5.71372C51.7916 4.80213 53.0808 4.23457 54.4461 4.08571C56.1957 3.788 57.9925 4.05726 59.5846 4.85571C60.1381 5.17154 60.6543 5.55117 61.1231 5.98714C60.4511 6.93398 59.7214 7.83672 58.9384 8.69C58.3556 8.20008 57.6875 7.82688 56.9692 7.59C56.188 7.27644 55.3196 7.27644 54.5384 7.59C53.8396 7.88092 53.2395 8.37462 52.8124 9.01008C52.3852 9.64554 52.1498 10.3949 52.135 11.1656C52.1203 11.9363 52.327 12.6945 52.7295 13.3465C53.132 13.9985 53.7128 14.5157 54.4 14.8343C54.9831 15.0954 55.6248 15.1895 56.2563 15.1064C56.8878 15.0234 57.4853 14.7663 57.9846 14.3629C58.0384 13.8405 58.0384 13.3138 57.9846 12.7914H55.2769V9.96286H61.5384C61.556 10.0137 61.556 10.0692 61.5384 10.12C61.5384 12.1157 61.5384 14.1271 61.5384 16.1386C61.5384 16.2014 61.5384 16.2329 61.5384 16.28Z" fill="white"/>
<path d="M96.9231 5.98727L95.0308 8.6587C93.9715 7.89197 92.7372 7.41582 91.4462 7.27584H91.0462C90.4154 7.27584 89.8923 7.6687 89.8616 8.09298C89.8308 8.51727 90.2462 8.95727 90.7385 9.08299C91.7693 9.38156 92.8154 9.58584 93.8154 9.94727C95.015 10.1887 96.0719 10.9064 96.7539 11.943C97.0363 12.4808 97.2014 13.0747 97.2378 13.6839C97.2742 14.293 97.181 14.903 96.9647 15.4719C96.7483 16.0408 96.4139 16.5551 95.9845 16.9794C95.5551 17.4038 95.0408 17.7281 94.477 17.9301C93.0207 18.4528 91.4603 18.5987 89.9353 18.3546C88.4104 18.1105 86.9684 17.4842 85.7385 16.5316L85.5231 16.343C85.4701 16.2578 85.4238 16.1685 85.3846 16.0758L87.4616 13.6087C88.1308 14.1896 88.907 14.6279 89.7446 14.8978C90.5821 15.1676 91.4641 15.2636 92.3385 15.1801C92.6997 15.1313 93.0323 14.9531 93.277 14.6773C93.3618 14.4064 93.3618 14.1153 93.277 13.8444C92.6252 13.3448 91.8555 13.0303 91.0462 12.933C89.5857 12.7347 88.2014 12.1496 87.0308 11.2358C86.6538 10.8198 86.3643 10.3294 86.1802 9.79464C85.996 9.25992 85.9211 8.69232 85.96 8.12688C85.9989 7.56143 86.1509 7.01014 86.4065 6.507C86.6621 6.00387 87.0159 5.55958 87.4462 5.20156C88.2399 4.55388 89.2033 4.16025 90.2154 4.07013C92.3574 3.73748 94.5448 4.21225 96.3693 5.40584C96.5862 5.56451 96.7738 5.7614 96.9231 5.98727V5.98727Z" fill="white"/>
<path d="M25 14.8814V18.2442H14.6923V4.41565H18.4615V14.8814H25Z" fill="white"/>
<path d="M3.96918 9.55432H7.53841V18.1658H3.96918V9.55432Z" fill="white"/>
<path d="M3.59996 5.95592C3.60383 5.39991 3.81969 4.86733 4.20173 4.47124C4.58376 4.07515 5.10188 3.84674 5.64611 3.83449C5.91579 3.82587 6.18437 3.8735 6.43542 3.97449C6.68647 4.07547 6.91473 4.22769 7.10624 4.42183C7.29775 4.61597 7.44849 4.84796 7.54925 5.10363C7.65001 5.35929 7.69867 5.63325 7.69227 5.90877C7.6925 6.46485 7.48053 6.99913 7.10136 7.39816C6.72219 7.7972 6.20568 8.02956 5.6615 8.04592C4.61534 8.06163 3.44611 6.97735 3.59996 5.95592Z" fill="white"/>
<path d="M61.5385 16.2799C61.5385 14.1741 61.5385 12.0684 61.5385 9.99414C61.7384 9.99414 61.6769 10.2456 61.6769 10.387V15.9184C61.6769 16.0441 61.7384 16.217 61.5385 16.2799Z" fill="white"/>
<path d="M54.523 7.58999C54.893 7.3736 55.312 7.25977 55.7384 7.25977C56.1648 7.25977 56.5837 7.3736 56.9538 7.58999C56.1549 7.39384 55.3219 7.39384 54.523 7.58999V7.58999Z" fill="white"/>
<path d="M69.7384 3.83427L69.0615 3.72427C68.9538 4.13285 69.0615 4.57284 68.8307 4.91856C68.7697 4.44919 68.7697 3.97364 68.8307 3.50427C69.2307 3.6457 69.5384 3.47285 69.7384 3.83427Z" fill="white"/>
<path d="M70.7692 11.1257C70.7727 10.2344 71.1146 9.37931 71.723 8.74035C72.3313 8.1014 73.1586 7.72843 74.0307 7.69995C74.9381 7.7123 75.8045 8.08811 76.4432 8.74646C77.082 9.40481 77.4422 10.2931 77.4461 11.22C77.4339 12.1243 77.0704 12.9867 76.4357 13.6174C75.8009 14.248 74.9469 14.5953 74.0615 14.5828C73.1761 14.5703 72.3318 14.199 71.7144 13.5507C71.0969 12.9024 70.7569 12.0301 70.7692 11.1257Z" fill="#21181B"/>
<path d="M37.1384 7.95139C37.9203 8.22829 38.5743 8.79068 38.9748 9.53039C39.3752 10.2701 39.4938 11.1349 39.3076 11.9585C39.1436 12.6957 38.7389 13.3539 38.1602 13.8251C37.5815 14.2962 36.8631 14.5524 36.123 14.5514C35.3033 14.5842 34.5004 14.3076 33.8676 13.7742C33.2348 13.2409 32.8164 12.4883 32.6923 11.66C32.5919 10.8702 32.7602 10.0692 33.1691 9.39122C33.5781 8.71319 34.2027 8.1993 34.9384 7.93568C35.6461 7.64973 36.4347 7.65536 37.1384 7.95139V7.95139Z" fill="#21181B"/>
<path d="M37.1384 7.95139C36.4158 7.77026 35.661 7.77026 34.9384 7.95139C35.2707 7.7478 35.6509 7.64026 36.0384 7.64026C36.4259 7.64026 36.8061 7.7478 37.1384 7.95139V7.95139Z" fill="white"/>
</svg>
