<svg width="94" height="14" viewBox="0 0 94 14" fill="none" xmlns="http://www.w3.org/2000/svg">
<g clip-path="url(#clip0_699_1557)">
<path d="M15.7923 11.0381L13.2138 13.8089C13.1581 13.8691 13.0905 13.9171 13.0154 13.95C12.9403 13.9828 12.8593 13.9999 12.7773 13.9999H0.554405C0.496109 13.9999 0.439086 13.9828 0.39032 13.9508C0.341555 13.9188 0.303163 13.8732 0.279845 13.8197C0.256527 13.7661 0.249295 13.7069 0.259036 13.6493C0.268776 13.5917 0.295064 13.5382 0.334684 13.4954L2.91022 10.7245C2.966 10.6643 3.03353 10.6163 3.10864 10.5834C3.18374 10.5506 3.26481 10.5336 3.34676 10.5335H15.5697C15.6285 10.5323 15.6864 10.5485 15.736 10.5802C15.7856 10.6119 15.8249 10.6575 15.8486 10.7115C15.8725 10.7654 15.8797 10.8252 15.8697 10.8833C15.8597 10.9414 15.8327 10.9953 15.7923 11.0381ZM13.2138 5.45702C13.1579 5.39711 13.0903 5.34928 13.0152 5.31642C12.9402 5.28358 12.8592 5.26641 12.7773 5.26599H0.554405C0.496109 5.26602 0.439086 5.28308 0.39032 5.31511C0.341555 5.34712 0.303163 5.39269 0.279845 5.44624C0.256527 5.49979 0.249295 5.55898 0.259036 5.61659C0.268776 5.67419 0.295064 5.72771 0.334684 5.77057L2.91022 8.54287C2.9662 8.60277 3.03379 8.65061 3.10885 8.68346C3.1839 8.71631 3.26486 8.73347 3.34676 8.73389H15.5697C15.6279 8.73359 15.6846 8.71631 15.7332 8.68419C15.7818 8.65207 15.8199 8.60648 15.8431 8.55299C15.8662 8.4995 15.8733 8.4404 15.8635 8.38293C15.8537 8.32546 15.8275 8.27208 15.7879 8.22932L13.2138 5.45702ZM0.554405 3.46639H12.7773C12.8593 3.46632 12.9403 3.4493 13.0154 3.41643C13.0905 3.38357 13.1581 3.33554 13.2138 3.27535L15.7923 0.504525C15.8327 0.461726 15.8597 0.407883 15.8697 0.34977C15.8797 0.291657 15.8725 0.231869 15.8486 0.177931C15.8249 0.123994 15.7856 0.0783153 15.736 0.0466442C15.6864 0.014973 15.6285 -0.00127604 15.5697 -5.83116e-05H3.34676C3.26481 2.81443e-05 3.18374 0.017036 3.10864 0.0499048C3.03353 0.0827734 2.966 0.130798 2.91022 0.190984L0.334684 2.96181C0.295064 3.00467 0.268776 3.05819 0.259036 3.1158C0.249295 3.1734 0.256527 3.23259 0.279845 3.28614C0.303163 3.33969 0.341555 3.38527 0.39032 3.41728C0.439086 3.4493 0.496109 3.46636 0.554405 3.46639Z" fill="white"/>
<path d="M30.6941 5.92082H24.1548V3.76249H32.3937V1.60416H24.133C23.8507 1.60263 23.571 1.65682 23.3097 1.76364C23.0484 1.87048 22.8105 2.02785 22.6099 2.22678C22.4093 2.42571 22.2497 2.66231 22.1402 2.92305C22.0308 3.1838 21.9736 3.46359 21.9722 3.74645V5.93395C21.9733 6.21706 22.0301 6.49717 22.1394 6.75824C22.2486 7.01933 22.4081 7.25626 22.6088 7.4555C22.8096 7.65475 23.0475 7.81238 23.309 7.9194C23.5705 8.02641 23.8506 8.0807 24.133 8.07916H30.681V10.2375H22.1279V12.3958H30.6941C30.9764 12.3974 31.256 12.3432 31.5174 12.2363C31.7787 12.1295 32.0166 11.9721 32.2171 11.7732C32.4178 11.5743 32.5774 11.3377 32.6869 11.0769C32.7963 10.8162 32.8535 10.5364 32.8549 10.2535V8.06603C32.8538 7.78293 32.797 7.50282 32.6877 7.24174C32.5785 6.98065 32.419 6.74372 32.2183 6.54448C32.0175 6.34524 31.7796 6.18761 31.5181 6.0806C31.2566 5.97359 30.9765 5.91929 30.6941 5.92082Z" fill="white"/>
<path d="M43.3622 1.60408H36.7982C36.5155 1.60177 36.2351 1.65539 35.9731 1.76188C35.7111 1.86837 35.4726 2.02561 35.2714 2.22463C35.07 2.42363 34.91 2.66048 34.8002 2.92161C34.6904 3.18274 34.633 3.46301 34.6316 3.74637V10.2534C34.633 10.5368 34.6904 10.8171 34.8002 11.0782C34.91 11.3393 35.07 11.5762 35.2714 11.7752C35.4726 11.9742 35.7111 12.1314 35.9731 12.2379C36.2351 12.3444 36.5155 12.398 36.7982 12.3957H43.3622C43.6445 12.3973 43.9242 12.3431 44.1855 12.2363C44.4469 12.1294 44.6848 11.9721 44.8853 11.7731C45.086 11.5742 45.2456 11.3376 45.355 11.0769C45.4644 10.8161 45.5216 10.5363 45.5231 10.2534V3.74637C45.5216 3.46351 45.4644 3.18371 45.355 2.92296C45.2456 2.66223 45.086 2.42563 44.8853 2.2267C44.6848 2.02776 44.4469 1.8704 44.1855 1.76356C43.9242 1.65674 43.6445 1.60254 43.3622 1.60408ZM43.3462 10.2374H36.8143V3.76241H43.3433L43.3462 10.2374Z" fill="white"/>
<path d="M66.3529 1.60416H59.9504C59.6682 1.60263 59.3885 1.65682 59.1271 1.76365C58.8658 1.87048 58.6279 2.02785 58.4274 2.22678C58.2267 2.42572 58.0671 2.66232 57.9577 2.92305C57.8483 3.1838 57.7911 3.4636 57.7896 3.74645V12.3958H59.9723V8.85062H66.3456V12.3958H68.5283V3.74645C68.5269 3.46236 68.4692 3.18137 68.3589 2.91965C68.2485 2.65795 68.0877 2.42071 67.8854 2.22158C67.6833 2.02246 67.4438 1.86539 67.1807 1.75943C66.9176 1.65347 66.6364 1.60071 66.3529 1.60416ZM66.3369 6.69229H59.9635V3.7625H66.3369V6.69229Z" fill="white"/>
<path d="M91.8392 1.60416H85.4367C85.1544 1.60263 84.8748 1.65682 84.6134 1.76364C84.3521 1.87048 84.1143 2.02785 83.9137 2.22678C83.713 2.42571 83.5534 2.66231 83.4439 2.92304C83.3345 3.18379 83.2773 3.46359 83.2759 3.74645V12.3958H85.4585V8.85061H91.8174V12.3958H94V3.74645C93.9986 3.46359 93.9414 3.18379 93.832 2.92304C93.7225 2.66231 93.5629 2.42571 93.3623 2.22678C93.1616 2.02785 92.9238 1.87048 92.6625 1.76364C92.4012 1.65682 92.1215 1.60263 91.8392 1.60416ZM91.8174 6.69228H85.444V3.76249H91.8174V6.69228Z" fill="white"/>
<path d="M79.1579 10.2375H78.2848L75.1636 2.50831C75.0567 2.24165 74.8726 2.01312 74.6351 1.85203C74.3977 1.69093 74.1175 1.60461 73.8307 1.60414H71.894C71.7057 1.60318 71.5192 1.63939 71.345 1.71069C71.1707 1.782 71.0122 1.887 70.8783 2.01971C70.7446 2.15243 70.6382 2.31024 70.5653 2.48416C70.4924 2.65807 70.4544 2.84468 70.4534 3.03331V12.3958H72.6361V3.76248H73.5092L76.6289 11.4916C76.7376 11.7578 76.9231 11.9854 77.1616 12.1454C77.4 12.3054 77.6807 12.3906 77.9676 12.39H79.9044C80.0927 12.3909 80.2792 12.3547 80.4534 12.2834C80.6277 12.2121 80.7862 12.1071 80.92 11.9744C81.0538 11.8417 81.1601 11.6839 81.233 11.51C81.3059 11.3361 81.3439 11.1495 81.3449 10.9608V1.60414H79.1579V10.2375Z" fill="white"/>
<path d="M49.6338 1.60413H47.4511V10.2535C47.4526 10.537 47.51 10.8174 47.6199 11.0786C47.7298 11.3398 47.89 11.5767 48.0914 11.7758C48.2927 11.9748 48.5315 12.132 48.7936 12.2384C49.0558 12.3448 49.3363 12.3983 49.6192 12.3958H56.1672V10.2375H49.6338V1.60413Z" fill="white"/>
</g>
<defs>
<clipPath id="clip0_699_1557">
<rect width="94" height="14" fill="white"/>
</clipPath>
</defs>
</svg>
