<svg width="132" height="24" viewBox="0 0 132 24" fill="none" xmlns="http://www.w3.org/2000/svg">
<path d="M4.75302 17.9902C3.20419 16.098 2.3349 13.737 2.28533 11.2878C2.23575 8.83863 3.00877 6.44405 4.47975 4.49019C5.87825 2.58521 7.87082 1.20481 10.1404 0.568624C11.7505 0.113258 13.4429 0.0327858 15.0886 0.33333C17.3903 0.732845 19.5006 1.87222 21.1023 3.58012C22.7039 5.28802 23.7103 7.4721 23.97 9.80392C24.1693 11.2825 24.0493 12.7868 23.6181 14.2146C23.187 15.6424 22.4549 16.9602 21.4715 18.0784C20.9558 17.8316 20.5417 17.4122 20.3003 16.8922C20.6419 16.2451 21.1006 15.6667 21.4227 14.9902C22.2174 13.3059 22.4798 11.4175 22.1744 9.57895C21.8691 7.74041 21.0107 6.03984 19.7147 4.70588C18.3877 3.30308 16.6455 2.36786 14.747 2.03921C12.5524 1.64254 10.2892 2.06946 8.38739 3.23886C6.48555 4.40826 5.07758 6.23867 4.43095 8.38235C4.03414 9.63414 3.91588 10.9582 4.08452 12.261C4.25317 13.5637 4.7046 14.8134 5.40692 15.9216C5.59826 16.1936 5.75867 16.4862 5.88515 16.7941C5.78984 17.0617 5.63989 17.3064 5.44493 17.5123C5.24996 17.7183 5.01429 17.8811 4.75302 17.9902V17.9902Z" fill="white"/>
<path d="M20.3979 16.9608L21.4715 18.0784C22.8964 19.5882 24.3994 21.0196 25.8536 22.4902C25.5198 23.0429 25.0619 23.5096 24.5165 23.8529L20.3784 19.6863C20.2808 19.5882 20.193 19.451 20.0173 19.4902C19.5654 19.2468 19.1851 18.8884 18.9144 18.451C17.0991 16.5784 15.2252 14.7549 13.4002 12.8922C13.0879 12.5686 12.9024 12.6765 12.6389 12.8922C10.9017 14.7059 9.10588 16.5392 7.31984 18.3333C6.90017 18.6569 6.64642 19.1765 6.11939 19.3725L2.00077 23.4412C1.85438 23.5882 1.7275 23.7941 1.50303 23.8529C1.21999 23.5686 0.946719 23.2647 0.644167 23.0098C0.341614 22.7549 0.244017 22.5196 0.644167 22.1569C1.9227 20.9314 3.16219 19.6569 4.42119 18.3922C4.54807 18.2647 4.66519 18.1274 4.78231 17.9902L5.85588 16.8431C6.04233 16.5892 6.2586 16.3587 6.50002 16.1569C8.50403 14.1372 10.5145 12.1209 12.5316 10.1078C13.0781 9.54901 13.1464 9.54901 13.6734 10.1078C15.8206 12.2582 17.9612 14.4085 20.0954 16.5588C20.2294 16.664 20.3337 16.8026 20.3979 16.9608V16.9608Z" fill="white"/>
<path d="M6.11938 19.3725L7.22224 18.2647C7.42719 18.2058 7.56383 18.3529 7.71023 18.4607C9.33403 19.6541 11.3005 20.2839 13.3123 20.2548C15.0217 20.2364 16.6905 19.7297 18.1239 18.7941C18.4167 18.6176 18.6607 18.3235 19.0511 18.3627L20.027 19.4901C18.8287 20.5769 17.3686 21.3305 15.7913 21.6764C14.1433 22.1052 12.4174 22.1341 10.7561 21.7608C9.09473 21.3874 7.54559 20.6226 6.2365 19.5294C6.19296 19.4806 6.15377 19.4281 6.11938 19.3725V19.3725Z" fill="white"/>
<path d="M33.25 16.75V15.5H32V14.25H34.5V15.5H38.25V13H33.25V11.75H32V9.25H33.25V8H39.5V9.25H40.75V10.5H38.25V9.25H34.5V11.75H39.5V13H40.75V15.5H39.5V16.75H33.25ZM45.75 16.75V9.25H43.25V8H50.75V9.25H48.25V16.75H45.75ZM52 16.75V10.5H53.25V9.25H54.5V8H58.25V9.25H59.5V10.5H60.75V16.75H58.25V14.25H54.5V16.75H52ZM54.5 13H58.25V10.5H57V9.25H55.75V10.5H54.5V13ZM62 16.75V8H69.5V9.25H70.75V13H68.25V14.25H69.5V15.5H70.75V16.75H67V15.5H65.75V14.25H64.5V16.75H62ZM64.5 13H67V11.75H68.25V9.25H64.5V13ZM73.25 16.75V8H75.75V15.5H80.75V16.75H73.25ZM82 16.75V10.5H83.25V9.25H84.5V8H88.25V9.25H89.5V10.5H90.75V16.75H88.25V14.25H84.5V16.75H82ZM84.5 13H88.25V10.5H87V9.25H85.75V10.5H84.5V13ZM93.25 16.75V15.5H92V8H94.5V15.5H98.25V8H100.75V15.5H99.5V16.75H93.25ZM102 16.75V8H104.5V9.25H105.75V10.5H107V11.75H108.25V8H110.75V16.75H108.25V14.25H107V13H105.75V11.75H104.5V16.75H102ZM114.5 16.75V15.5H113.25V14.25H112V10.5H113.25V9.25H114.5V8H119.5V9.25H120.75V10.5H118.25V9.25H115.75V10.5H114.5V14.25H115.75V15.5H118.25V14.25H120.75V15.5H119.5V16.75H114.5ZM122 16.75V8H124.5V11.75H128.25V8H130.75V16.75H128.25V13H124.5V16.75H122Z" fill="white"/>
</svg>
