<svg width="76" height="28" viewBox="0 0 76 28" fill="none" xmlns="http://www.w3.org/2000/svg">
<path d="M31.2736 15.225V7.29166H34.5931V15.3417C34.5931 16.6833 35.292 17.5583 36.9226 17.5583C38.4368 17.5583 39.1939 16.625 39.1939 15.2833V7.29166H42.5134V15.225C42.5134 18.3167 40.6498 20.1833 36.9226 20.1833C33.1372 20.2417 31.2736 18.375 31.2736 15.225ZM44.0276 10.325H46.9977V11.6667H47.0559C47.7548 10.6167 48.6866 10.0917 50.0261 10.0917C52.1226 10.0917 53.3456 11.6083 53.3456 13.7667V20.0083H50.259V14.35C50.259 13.3583 49.7349 12.6583 48.7448 12.6583C47.7548 12.6583 47.0559 13.5333 47.0559 14.7V20.0083H43.9693V10.325H44.0276ZM54.918 6.53333H58.0046V9.04166H54.918V6.53333ZM54.918 10.325H58.0046V19.95H54.918V10.325ZM60.3923 17.4417V12.8333H59.1111V10.325H60.3923V7.29166H63.3625V10.325H65.1096V12.8333H63.3625V16.8C63.3625 17.5583 63.7701 17.7333 64.4107 17.7333H65.1096V19.95C64.8184 20.0083 64.236 20.125 63.4207 20.125C61.6736 20.125 60.3923 19.5417 60.3923 17.4417ZM67.0314 20.7667H68.0797C68.9533 20.7667 69.3609 20.4167 69.3609 19.775C69.3609 19.3667 69.1862 18.7833 68.7785 17.7917L65.9249 10.3833H69.128L70.4092 14.4667C70.7004 15.4 70.9916 16.6833 70.9916 16.6833H71.0498C71.0498 16.6833 71.341 15.4 71.6322 14.4667L72.9134 10.3833H76L72.6805 20.125C71.9234 22.4 70.9916 23.1583 69.0697 23.1583H67.0897L67.0314 20.7667Z" fill="white"/>
<path d="M24.751 19.6V6.53333L13.4529 0V5.01667L17.8789 7.58333C18.0536 7.7 18.0536 7.93333 17.8789 7.99167L12.6375 11.025C12.4628 11.1417 12.2881 11.0833 12.1716 11.025L6.93027 7.99167C6.75556 7.93333 6.75556 7.64167 6.93027 7.58333L11.3563 5.01667V0L0 6.53333V19.6V19.5417V19.6L4.30958 17.0917V11.9583C4.30958 11.7833 4.54253 11.6667 4.659 11.725L9.90038 14.7583C10.0751 14.875 10.1333 14.9917 10.1333 15.1667V21.2333C10.1333 21.4083 9.90038 21.525 9.78391 21.4667L5.35786 18.9L1.04828 21.4083L12.3464 28L23.6444 21.4667L19.3349 18.9583L14.9088 21.525C14.7341 21.6417 14.5594 21.525 14.5594 21.2917V15.225C14.5594 15.05 14.6759 14.875 14.7923 14.8167L20.0337 11.7833C20.2084 11.6667 20.3831 11.7833 20.3831 12.0167V17.15L24.751 19.6Z" fill="#4C4C4C"/>
<path d="M12.3463 28L23.6444 21.4667L19.3348 18.9583L14.9088 21.525C14.734 21.6417 14.5593 21.525 14.5593 21.2917V15.225C14.5593 15.05 14.6758 14.875 14.7923 14.8167L20.0337 11.7833C20.2084 11.6667 20.3831 11.7833 20.3831 12.0167V17.15L24.6927 19.6583V6.53333L12.3463 13.7083V28Z" fill="#A5A5A5"/>
<path d="M13.4529 0V5.01667L17.8789 7.58333C18.0536 7.7 18.0536 7.93333 17.8789 7.99167L12.6375 11.025C12.4628 11.1417 12.2881 11.0833 12.1716 11.025L6.93027 7.99167C6.75556 7.93333 6.75556 7.64167 6.93027 7.58333L11.3563 5.01667V0L0 6.53333L12.3464 13.7083L24.6927 6.53333L13.4529 0Z" fill="white"/>
<path d="M9.84214 21.525L5.41609 18.9583L1.10651 21.4667L12.4046 28V13.7083L0 6.53333V19.6V19.5417V19.6L4.30958 17.0917V11.9583C4.30958 11.7833 4.54253 11.6667 4.659 11.725L9.90038 14.7583C10.0751 14.875 10.1333 14.9917 10.1333 15.1667V21.2333C10.1916 21.4667 10.0169 21.6417 9.84214 21.525V21.525Z" fill="#CCCCCC"/>
</svg>
